# Blender 5.0.1
# www.blender.org
mtllib main_column.mtl
g Рельс_Куб
v 0.084924 1.823014 -2.310749
v 0.084924 1.466548 -2.310749
v 0.084924 1.823014 2.989252
v 0.084924 1.466548 2.989252
v 0.134914 1.466548 2.989252
v 0.134914 1.823014 2.989252
v 0.134914 1.466548 -2.310749
v 0.134914 1.823014 -2.310749
v 0.134914 1.823014 -2.310749
v 0.134914 1.466548 -2.310749
v 0.134914 1.466548 2.989252
v 0.134914 1.823014 2.989252
v 0.134914 1.823014 -2.310749
v 0.134914 1.466548 -2.310749
v 0.134914 1.466548 2.989252
v 0.134914 1.823014 2.989252
v 0.134914 1.823014 -2.310749
v 0.134914 1.823014 2.989252
v 0.084924 1.823014 2.989252
v 0.084924 1.823014 -2.310749
v 0.134914 1.466548 2.989252
v 0.134914 1.823014 2.989252
v 0.134914 1.466548 -2.310749
v 0.134914 1.823014 -2.310749
v 0.134914 1.466548 2.989252
v 0.134914 1.823014 2.989252
v 0.134914 1.466548 -2.310749
v 0.134914 1.823014 -2.310749
v 0.134914 1.823014 -2.310749
v 0.134914 1.823014 2.989252
v 0.084924 1.823014 2.989252
v 0.084924 1.823014 -2.310749
v 0.134914 1.849780 -2.310749
v 0.134914 1.849780 2.989252
v 0.084924 1.849780 2.989252
v 0.084924 1.849780 -2.310749
v 0.084924 1.439780 -2.310749
v 0.084924 1.439780 2.989252
v 0.134914 1.439780 2.989252
v 0.134914 1.439780 -2.310749
v 0.152024 1.466548 2.989252
v 0.152024 1.466548 -2.310749
v 0.152024 1.823014 -2.310749
v 0.152024 1.823014 2.989252
v 0.152024 1.849780 -2.310749
v 0.152024 1.849780 2.989252
v 0.152024 1.439780 2.989252
v 0.152024 1.439780 -2.310749
v 0.134914 1.476546 2.989252
v 0.134914 1.476546 -2.310749
v 0.152024 1.476546 2.989252
v 0.152024 1.476546 -2.310749
v 0.134914 1.813016 -2.310749
v 0.134914 1.813016 2.989252
v 0.152024 1.813016 -2.310749
v 0.152024 1.813016 2.989252
vn -1.0000 -0.0000 -0.0000
vn -0.0000 1.0000 -0.0000
vn 1.0000 -0.0000 -0.0000
vn -0.0000 -0.0000 -1.0000
vn -0.0000 -0.0000 1.0000
vn -0.0000 -1.0000 -0.0000
vt 0.375000 0.000000
vt 0.625000 0.000000
vt 0.625000 0.250000
vt 0.375000 0.250000
vt 0.625000 0.500000
vt 0.375000 0.500000
vt 0.625000 0.750000
vt 0.375000 0.750000
vt 0.625000 1.000000
vt 0.375000 1.000000
vt 0.875000 0.500000
vt 0.875000 0.750000
vt 0.125000 0.500000
vt 0.125000 0.750000
s 0
usemtl material-000
f 4/1/1 3/2/1 1/3/1 2/4/1
f 8/5/2 7/6/2 23/6/2 24/5/2
f 8/5/2 6/7/2 12/7/2 9/5/2
f 6/7/2 8/5/2 24/5/2 22/7/2
f 7/6/2 5/8/2 21/8/2 23/6/2
f 5/8/2 6/7/2 22/7/2 21/8/2
f 9/5/2 12/7/2 16/7/2 13/5/2
f 7/6/2 8/5/2 9/5/2 10/6/2
f 6/7/2 5/8/2 11/8/2 12/7/2
f 5/8/2 7/6/2 10/6/2 11/8/2
f 14/6/3 13/5/3 16/7/3 15/8/3
f 10/6/2 9/5/2 13/5/2 14/6/2
f 12/7/2 11/8/2 15/8/2 16/7/2
f 11/8/2 10/6/2 14/6/2 15/8/2
f 20/3/2 19/2/2 31/2/2 32/3/2
f 23/6/2 21/8/2 25/8/2 27/6/2
f 21/8/2 22/7/2 26/7/2 25/8/2
f 24/5/2 23/6/2 27/6/2 28/5/2
f 22/7/2 24/5/2 28/5/2 26/7/2
f 2/4/4 1/3/4 28/5/4 27/6/4
f 25/8/5 26/7/5 3/9/5 4/10/5
f 2/4/4 27/6/4 40/6/4 37/4/4
f 3/9/2 26/7/2 18/7/2 19/9/2
f 1/3/2 3/2/2 19/2/2 20/3/2
f 28/5/2 1/3/2 20/3/2 17/5/2
f 26/7/2 28/5/2 17/5/2 18/7/2
f 32/3/1 31/2/1 35/2/1 36/3/1
f 18/7/2 17/5/2 29/5/2 30/7/2
f 17/5/2 20/3/2 32/3/2 29/5/2
f 19/9/2 18/7/2 30/7/2 31/9/2
f 33/5/2 36/11/2 35/12/2 34/7/2
f 25/8/5 41/8/5 51/8/5 49/8/5
f 29/5/4 32/3/4 36/3/4 33/5/4
f 31/9/5 30/7/5 34/7/5 35/9/5
f 37/13/6 40/6/6 39/8/6 38/14/6
f 4/1/1 2/4/1 37/4/1 38/1/1
f 34/7/5 30/7/5 44/7/5 46/7/5
f 25/8/5 4/10/5 38/10/5 39/8/5
f 44/7/3 43/5/3 45/5/3 46/7/3
f 42/6/3 41/8/3 47/8/3 48/6/3
f 40/6/4 27/6/4 42/6/4 48/6/4
f 33/5/2 34/7/2 46/7/2 45/5/2
f 39/8/6 40/6/6 48/6/6 47/8/6
f 29/5/4 33/5/4 45/5/4 43/5/4
f 25/8/5 39/8/5 47/8/5 41/8/5
f 43/5/3 44/7/3 56/7/3 55/5/3
f 50/6/2 49/8/2 51/8/2 52/6/2
f 27/6/1 25/8/1 49/8/1 50/6/1
f 41/8/3 42/6/3 52/6/3 51/8/3
f 42/6/4 27/6/4 50/6/4 52/6/4
f 54/7/6 53/5/6 55/5/6 56/7/6
f 30/7/1 29/5/1 53/5/1 54/7/1
f 44/7/5 30/7/5 54/7/5 56/7/5
f 29/5/4 43/5/4 55/5/4 53/5/4
g Стойка_Куб.007
v -0.082171 0.055513 -2.045382
v -0.082171 1.755513 -2.045382
v -0.082171 0.055513 -2.245382
v -0.082171 1.755513 -2.245382
v 0.040051 0.055513 -2.045382
v 0.040051 1.755513 -2.045382
v 0.040051 0.055513 -2.245382
v 0.040051 1.755513 -2.245382
v -0.082171 0.229763 -2.045382
v -0.082171 0.229763 -2.245382
v 0.040051 0.229763 -2.245382
v 0.040051 0.229763 -2.045382
v -0.082171 0.454388 -2.045382
v -0.082171 0.454388 -2.245382
v 0.040051 0.454388 -2.245382
v 0.040051 0.454388 -2.045382
v 0.078940 0.454388 -2.245382
v 0.078940 0.229763 -2.245382
v 0.078940 0.454388 -2.045382
v 0.078940 0.229763 -2.045382
v -0.121060 0.454388 -2.245382
v -0.121060 0.229763 -2.245382
v -0.121060 0.229763 -2.045382
v -0.121060 0.454388 -2.045382
vn -1.0000 -0.0000 -0.0000
vn -0.0000 -0.0000 -1.0000
vn 1.0000 -0.0000 -0.0000
vn -0.0000 -0.0000 1.0000
vn -0.0000 -1.0000 -0.0000
vn -0.0000 1.0000 -0.0000
vt 0.433658 0.000000
vt 0.625000 0.000000
vt 0.625000 0.250000
vt 0.433658 0.250000
vt 0.625000 0.500000
vt 0.433658 0.500000
vt 0.625000 0.750000
vt 0.433658 0.750000
vt 0.625000 1.000000
vt 0.433658 1.000000
vt 0.125000 0.500000
vt 0.375000 0.500000
vt 0.375000 0.750000
vt 0.125000 0.750000
vt 0.875000 0.500000
vt 0.875000 0.750000
vt 0.400625 0.750000
vt 0.400625 1.000000
vt 0.375000 1.000000
vt 0.400625 0.500000
vt 0.375000 0.250000
vt 0.400625 0.250000
vt 0.375000 0.000000
vt 0.400625 0.000000
s 0
usemtl material-010
f 69/15/7 58/16/7 60/17/7 70/18/7
f 70/18/8 60/17/8 64/19/8 71/20/8
f 71/20/9 64/19/9 62/21/9 72/22/9
f 72/22/10 62/21/10 58/23/10 69/24/10
f 59/25/11 63/26/11 61/27/11 57/28/11
f 64/19/12 60/29/12 58/30/12 62/21/12
f 61/27/10 68/31/10 65/32/10 57/33/10
f 63/26/9 67/34/9 68/31/9 61/27/9
f 59/35/8 66/36/8 67/34/8 63/26/8
f 57/37/7 65/38/7 66/36/7 59/35/7
f 68/31/10 72/22/10 69/24/10 65/32/10
f 67/34/8 71/20/8 73/20/8 74/34/8
f 66/36/8 70/18/8 71/20/8 67/34/8
f 65/32/10 69/24/10 80/24/10 79/32/10
f 74/34/9 73/20/9 75/22/9 76/31/9
f 71/20/12 72/22/12 75/22/12 73/20/12
f 68/31/11 67/34/11 74/34/11 76/31/11
f 72/22/10 68/31/10 76/31/10 75/22/10
f 79/38/7 80/15/7 77/18/7 78/36/7
f 69/15/12 70/18/12 77/18/12 80/15/12
f 66/36/11 65/38/11 79/38/11 78/36/11
f 70/18/8 66/36/8 78/36/8 77/18/8
g Платформа_Куб.014
v -0.387370 0.044946 -1.915783
v -0.387370 0.071332 -1.915783
v -0.387370 0.044946 -2.508922
v -0.387370 0.071332 -2.508922
v 0.358267 0.044946 -1.915783
v 0.358267 0.071332 -1.915783
v 0.358267 0.044946 -2.508922
v 0.358267 0.071332 -2.508922
vn -1.0000 -0.0000 -0.0000
vn -0.0000 -0.0000 -1.0000
vn 1.0000 -0.0000 -0.0000
vn -0.0000 -0.0000 1.0000
vn -0.0000 -1.0000 -0.0000
vn -0.0000 1.0000 -0.0000
vt 0.375000 0.000000
vt 0.625000 0.000000
vt 0.625000 0.250000
vt 0.375000 0.250000
vt 0.625000 0.500000
vt 0.375000 0.500000
vt 0.625000 0.750000
vt 0.375000 0.750000
vt 0.625000 1.000000
vt 0.375000 1.000000
vt 0.125000 0.500000
vt 0.125000 0.750000
vt 0.875000 0.500000
vt 0.875000 0.750000
s 0
usemtl material-013
f 81/39/13 82/40/13 84/41/13 83/42/13
f 83/42/14 84/41/14 88/43/14 87/44/14
f 87/44/15 88/43/15 86/45/15 85/46/15
f 85/46/16 86/45/16 82/47/16 81/48/16
f 83/49/17 87/44/17 85/46/17 81/50/17
f 88/43/18 84/51/18 82/52/18 86/45/18
g Куб.001_Куб.001
v 0.074613 1.554823 3.079088
v 0.074613 1.732261 3.079088
v 0.074613 1.554823 2.989070
v 0.074613 1.732261 2.989070
v 0.147191 1.554823 3.079088
v 0.147191 1.732261 3.079088
v 0.147191 1.554823 2.989070
v 0.147191 1.732261 2.989070
v 0.074613 1.732261 2.928394
v 0.074613 1.554823 2.928394
v 0.147191 1.554823 2.928394
v 0.147191 1.732261 2.928394
v 0.074613 1.554823 3.139765
v 0.074613 1.732261 3.139765
v 0.147191 1.732261 3.139765
v 0.147191 1.554823 3.139765
v 0.083985 1.584383 2.989070
v 0.083985 1.584383 3.079088
v 0.083985 1.702701 3.079088
v 0.083985 1.702701 2.989070
v 0.137819 1.584383 2.989070
v 0.137819 1.702701 2.989070
v 0.137819 1.584383 3.079088
v 0.137819 1.702701 3.079088
v 0.083985 1.733369 3.079088
v 0.083985 1.733369 2.989070
v 0.137819 1.733369 2.989070
v 0.137819 1.733369 3.079088
v 0.083985 1.553634 2.989070
v 0.083985 1.553634 3.079088
v 0.137819 1.553634 2.989070
v 0.137819 1.553634 3.079088
vn -0.0000 -0.0000 1.0000
vn 1.0000 -0.0000 -0.0000
vn -0.0000 1.0000 -0.0000
vn -0.0000 -0.0000 -1.0000
vn -0.0000 -1.0000 -0.0000
vn -1.0000 -0.0000 -0.0000
vt 0.625000 0.250000
vt 0.375000 0.250000
vt 0.625000 0.500000
vt 0.375000 0.500000
vt 0.875000 0.500000
vt 0.625000 0.750000
vt 0.875000 0.750000
vt 0.375000 0.750000
vt 0.125000 0.500000
vt 0.625000 1.000000
vt 0.375000 1.000000
vt 0.625000 0.000000
vt 0.375000 0.000000
vt 0.125000 0.750000
s 0
usemtl material-001
f 92/53/19 91/54/19 105/54/19 108/53/19
f 96/55/20 95/56/20 99/56/20 100/55/20
f 96/55/19 92/57/19 108/57/19 110/55/19
f 94/58/21 90/59/21 102/59/21 103/58/21
f 94/58/22 93/60/22 111/60/22 112/58/22
f 90/59/22 94/58/22 112/58/22 107/59/22
f 98/54/22 97/53/22 100/55/22 99/56/22
f 95/56/23 91/61/23 98/61/23 99/56/23
f 92/57/21 96/55/21 100/55/21 97/57/21
f 91/54/24 92/53/24 97/53/24 98/54/24
f 104/60/19 103/58/19 102/62/19 101/63/19
f 93/60/20 94/58/20 103/58/20 104/60/20
f 90/64/24 89/65/24 101/65/24 102/64/24
f 89/66/23 93/60/23 104/60/23 101/66/23
f 106/65/24 107/64/24 108/53/24 105/54/24
f 109/56/20 110/55/20 112/58/20 111/60/20
f 111/60/19 106/66/19 118/66/19 120/60/19
f 110/55/22 108/57/22 114/57/22 115/55/22
f 89/65/22 90/64/22 107/64/22 106/65/22
f 93/60/22 89/66/22 106/66/22 111/60/22
f 95/56/19 96/55/19 110/55/19 109/56/19
f 91/61/19 95/56/19 109/56/19 105/61/19
f 115/55/21 114/57/21 113/59/21 116/58/21
f 112/58/20 110/55/20 115/55/20 116/58/20
f 108/53/24 107/64/24 113/64/24 114/53/24
f 107/59/19 112/58/19 116/58/19 113/59/19
f 117/61/23 119/56/23 120/60/23 118/66/23
f 105/61/22 109/56/22 119/56/22 117/61/22
f 106/65/24 105/54/24 117/54/24 118/65/24
f 109/56/20 111/60/20 120/60/20 119/56/20
g Куб.002_Куб.008
v -0.226374 0.062108 -2.111684
v -0.091973 1.032404 -2.111684
v -0.226374 0.062108 -2.184411
v -0.091973 1.032404 -2.184411
v -0.215593 0.057269 -2.111684
v -0.081192 1.027565 -2.111684
v -0.215593 0.057269 -2.184411
v -0.081192 1.027565 -2.184411
vn -0.9905 0.1372 -0.0000
vn -0.0000 -0.0000 -1.0000
vn 0.9905 -0.1372 -0.0000
vn -0.0000 -0.0000 1.0000
vn -0.4094 -0.9123 -0.0000
vn 0.4094 0.9123 -0.0000
vt 0.375000 0.000000
vt 0.625000 0.000000
vt 0.625000 0.250000
vt 0.375000 0.250000
vt 0.625000 0.500000
vt 0.375000 0.500000
vt 0.625000 0.750000
vt 0.375000 0.750000
vt 0.625000 1.000000
vt 0.375000 1.000000
vt 0.125000 0.500000
vt 0.125000 0.750000
vt 0.875000 0.500000
vt 0.875000 0.750000
s 0
usemtl material-016
f 121/67/25 122/68/25 124/69/25 123/70/25
f 123/70/26 124/69/26 128/71/26 127/72/26
f 127/72/27 128/71/27 126/73/27 125/74/27
f 125/74/28 126/73/28 122/75/28 121/76/28
f 123/77/29 127/72/29 125/74/29 121/78/29
f 128/71/30 124/79/30 122/80/30 126/73/30
g Куб.008_Куб.011
v -0.040700 0.063558 -2.476526
v -0.040700 1.033853 -2.256597
v 0.003744 0.063558 -2.476526
v 0.003744 1.033853 -2.256597
v -0.040700 0.058719 -2.458884
v -0.040700 1.029015 -2.238955
v 0.003744 0.058719 -2.458884
v 0.003744 1.029015 -2.238955
vn -0.0000 0.2211 -0.9753
vn 1.0000 -0.0000 -0.0000
vn -0.0000 -0.2211 0.9753
vn -1.0000 -0.0000 -0.0000
vn -0.0000 -0.9644 -0.2645
vn -0.0000 0.9644 0.2645
vt 0.375000 0.000000
vt 0.625000 0.000000
vt 0.625000 0.250000
vt 0.375000 0.250000
vt 0.625000 0.500000
vt 0.375000 0.500000
vt 0.625000 0.750000
vt 0.375000 0.750000
vt 0.625000 1.000000
vt 0.375000 1.000000
vt 0.125000 0.500000
vt 0.125000 0.750000
vt 0.875000 0.500000
vt 0.875000 0.750000
s 0
usemtl material-012
f 129/81/31 130/82/31 132/83/31 131/84/31
f 131/84/32 132/83/32 136/85/32 135/86/32
f 135/86/33 136/85/33 134/87/33 133/88/33
f 133/88/34 134/87/34 130/89/34 129/90/34
f 131/91/35 135/86/35 133/88/35 129/92/35
f 136/85/36 132/93/36 130/94/36 134/87/36
g Куб.007_Куб.013
v 0.048255 1.350048 -1.995445
v -0.034879 1.850048 -1.995445
v 0.048255 1.350048 -2.295445
v -0.034879 1.850048 -2.295445
v 0.087343 1.350048 -1.995445
v 0.087343 1.850048 -1.995445
v 0.087343 1.350048 -2.295445
v 0.087343 1.850048 -2.295445
vn -0.9865 -0.1640 -0.0000
vn -0.0000 -0.0000 -1.0000
vn 1.0000 -0.0000 -0.0000
vn -0.0000 -0.0000 1.0000
vn -0.0000 -1.0000 -0.0000
vn -0.0000 1.0000 -0.0000
vt 0.375000 0.000000
vt 0.625000 0.000000
vt 0.625000 0.250000
vt 0.375000 0.250000
vt 0.625000 0.500000
vt 0.375000 0.500000
vt 0.625000 0.750000
vt 0.375000 0.750000
vt 0.625000 1.000000
vt 0.375000 1.000000
vt 0.125000 0.500000
vt 0.125000 0.750000
vt 0.875000 0.500000
vt 0.875000 0.750000
s 0
usemtl material-017
f 137/95/37 138/96/37 140/97/37 139/98/37
f 139/98/38 140/97/38 144/99/38 143/100/38
f 143/100/39 144/99/39 142/101/39 141/102/39
f 141/102/40 142/101/40 138/103/40 137/104/40
f 139/105/41 143/100/41 141/102/41 137/106/41
f 144/99/42 140/107/42 138/108/42 142/101/42
g Стойка.001_Куб.007
v -0.087204 0.055513 1.771421
v -0.087204 1.755513 1.771421
v -0.087204 0.055513 1.571421
v -0.087204 1.755513 1.571421
v 0.035018 0.055513 1.771421
v 0.035018 1.755513 1.771421
v 0.035018 0.055513 1.571421
v 0.035018 1.755513 1.571421
v -0.087204 0.229763 1.771421
v -0.087204 0.229763 1.571421
v 0.035018 0.229763 1.571421
v 0.035018 0.229763 1.771421
v -0.087204 0.454388 1.771421
v -0.087204 0.454388 1.571421
v 0.035018 0.454388 1.571421
v 0.035018 0.454388 1.771421
v 0.073907 0.454388 1.571421
v 0.073907 0.229763 1.571421
v 0.073907 0.454388 1.771421
v 0.073907 0.229763 1.771421
v -0.126093 0.454388 1.571421
v -0.126093 0.229763 1.571421
v -0.126093 0.229763 1.771421
v -0.126093 0.454388 1.771421
vn -1.0000 -0.0000 -0.0000
vn -0.0000 -0.0000 -1.0000
vn 1.0000 -0.0000 -0.0000
vn -0.0000 -0.0000 1.0000
vn -0.0000 -1.0000 -0.0000
vn -0.0000 1.0000 -0.0000
vt 0.433658 0.000000
vt 0.625000 0.000000
vt 0.625000 0.250000
vt 0.433658 0.250000
vt 0.625000 0.500000
vt 0.433658 0.500000
vt 0.625000 0.750000
vt 0.433658 0.750000
vt 0.625000 1.000000
vt 0.433658 1.000000
vt 0.125000 0.500000
vt 0.375000 0.500000
vt 0.375000 0.750000
vt 0.125000 0.750000
vt 0.875000 0.500000
vt 0.875000 0.750000
vt 0.400625 0.750000
vt 0.400625 1.000000
vt 0.375000 1.000000
vt 0.400625 0.500000
vt 0.375000 0.250000
vt 0.400625 0.250000
vt 0.375000 0.000000
vt 0.400625 0.000000
s 0
usemtl material-010
f 157/109/43 146/110/43 148/111/43 158/112/43
f 158/112/44 148/111/44 152/113/44 159/114/44
f 159/114/45 152/113/45 150/115/45 160/116/45
f 160/116/46 150/115/46 146/117/46 157/118/46
f 147/119/47 151/120/47 149/121/47 145/122/47
f 152/113/48 148/123/48 146/124/48 150/115/48
f 149/121/46 156/125/46 153/126/46 145/127/46
f 151/120/45 155/128/45 156/125/45 149/121/45
f 147/129/44 154/130/44 155/128/44 151/120/44
f 145/131/43 153/132/43 154/130/43 147/129/43
f 156/125/46 160/116/46 157/118/46 153/126/46
f 155/128/44 159/114/44 161/114/44 162/128/44
f 154/130/44 158/112/44 159/114/44 155/128/44
f 153/126/46 157/118/46 168/118/46 167/126/46
f 162/128/45 161/114/45 163/116/45 164/125/45
f 159/114/48 160/116/48 163/116/48 161/114/48
f 156/125/47 155/128/47 162/128/47 164/125/47
f 160/116/46 156/125/46 164/125/46 163/116/46
f 167/132/43 168/109/43 165/112/43 166/130/43
f 157/109/48 158/112/48 165/112/48 168/109/48
f 154/130/47 153/132/47 167/132/47 166/130/47
f 158/112/44 154/130/44 166/130/44 165/112/44
g Платформа.001_Куб.014
v -0.392403 0.044946 1.901020
v -0.392403 0.071332 1.901020
v -0.392403 0.044946 1.307881
v -0.392403 0.071332 1.307881
v 0.353234 0.044946 1.901020
v 0.353234 0.071332 1.901020
v 0.353234 0.044946 1.307881
v 0.353234 0.071332 1.307881
vn -1.0000 -0.0000 -0.0000
vn -0.0000 -0.0000 -1.0000
vn 1.0000 -0.0000 -0.0000
vn -0.0000 -0.0000 1.0000
vn -0.0000 -1.0000 -0.0000
vn -0.0000 1.0000 -0.0000
vt 0.375000 0.000000
vt 0.625000 0.000000
vt 0.625000 0.250000
vt 0.375000 0.250000
vt 0.625000 0.500000
vt 0.375000 0.500000
vt 0.625000 0.750000
vt 0.375000 0.750000
vt 0.625000 1.000000
vt 0.375000 1.000000
vt 0.125000 0.500000
vt 0.125000 0.750000
vt 0.875000 0.500000
vt 0.875000 0.750000
s 0
usemtl material-013
f 169/133/49 170/134/49 172/135/49 171/136/49
f 171/136/50 172/135/50 176/137/50 175/138/50
f 175/138/51 176/137/51 174/139/51 173/140/51
f 173/140/52 174/139/52 170/141/52 169/142/52
f 171/143/53 175/138/53 173/140/53 169/144/53
f 176/137/54 172/145/54 170/146/54 174/139/54
g Куб.006_Куб.008
v -0.231407 0.062108 1.705120
v -0.097006 1.032404 1.705120
v -0.231407 0.062108 1.632392
v -0.097006 1.032404 1.632392
v -0.220626 0.057269 1.705120
v -0.086225 1.027565 1.705120
v -0.220626 0.057269 1.632392
v -0.086225 1.027565 1.632392
vn -0.9905 0.1372 -0.0000
vn -0.0000 -0.0000 -1.0000
vn 0.9905 -0.1372 -0.0000
vn -0.0000 -0.0000 1.0000
vn -0.4094 -0.9123 -0.0000
vn 0.4094 0.9123 -0.0000
vt 0.375000 0.000000
vt 0.625000 0.000000
vt 0.625000 0.250000
vt 0.375000 0.250000
vt 0.625000 0.500000
vt 0.375000 0.500000
vt 0.625000 0.750000
vt 0.375000 0.750000
vt 0.625000 1.000000
vt 0.375000 1.000000
vt 0.125000 0.500000
vt 0.125000 0.750000
vt 0.875000 0.500000
vt 0.875000 0.750000
s 0
usemtl material-016
f 177/147/55 178/148/55 180/149/55 179/150/55
f 179/150/56 180/149/56 184/151/56 183/152/56
f 183/152/57 184/151/57 182/153/57 181/154/57
f 181/154/58 182/153/58 178/155/58 177/156/58
f 179/157/59 183/152/59 181/154/59 177/158/59
f 184/151/60 180/159/60 178/160/60 182/153/60
g Куб.009_Куб.011
v -0.045733 0.063558 1.340277
v -0.045733 1.033853 1.560206
v -0.001289 0.063558 1.340277
v -0.001289 1.033853 1.560206
v -0.045733 0.058719 1.357919
v -0.045733 1.029015 1.577848
v -0.001289 0.058719 1.357919
v -0.001289 1.029015 1.577848
vn -0.0000 0.2211 -0.9753
vn 1.0000 -0.0000 -0.0000
vn -0.0000 -0.2211 0.9753
vn -1.0000 -0.0000 -0.0000
vn -0.0000 -0.9644 -0.2645
vn -0.0000 0.9644 0.2645
vt 0.375000 0.000000
vt 0.625000 0.000000
vt 0.625000 0.250000
vt 0.375000 0.250000
vt 0.625000 0.500000
vt 0.375000 0.500000
vt 0.625000 0.750000
vt 0.375000 0.750000
vt 0.625000 1.000000
vt 0.375000 1.000000
vt 0.125000 0.500000
vt 0.125000 0.750000
vt 0.875000 0.500000
vt 0.875000 0.750000
s 0
usemtl material-012
f 185/161/61 186/162/61 188/163/61 187/164/61
f 187/164/62 188/163/62 192/165/62 191/166/62
f 191/166/63 192/165/63 190/167/63 189/168/63
f 189/168/64 190/167/64 186/169/64 185/170/64
f 187/171/65 191/166/65 189/168/65 185/172/65
f 192/165/66 188/173/66 186/174/66 190/167/66
g Куб.010_Куб.013
v 0.043222 1.350048 1.821358
v -0.039912 1.850048 1.821358
v 0.043222 1.350048 1.521358
v -0.039912 1.850048 1.521358
v 0.082310 1.350048 1.821358
v 0.082310 1.850048 1.821358
v 0.082310 1.350048 1.521358
v 0.082310 1.850048 1.521358
vn -0.9865 -0.1640 -0.0000
vn -0.0000 -0.0000 -1.0000
vn 1.0000 -0.0000 -0.0000
vn -0.0000 -0.0000 1.0000
vn -0.0000 -1.0000 -0.0000
vn -0.0000 1.0000 -0.0000
vt 0.375000 0.000000
vt 0.625000 0.000000
vt 0.625000 0.250000
vt 0.375000 0.250000
vt 0.625000 0.500000
vt 0.375000 0.500000
vt 0.625000 0.750000
vt 0.375000 0.750000
vt 0.625000 1.000000
vt 0.375000 1.000000
vt 0.125000 0.500000
vt 0.125000 0.750000
vt 0.875000 0.500000
vt 0.875000 0.750000
s 0
usemtl material-017
f 193/175/67 194/176/67 196/177/67 195/178/67
f 195/178/68 196/177/68 200/179/68 199/180/68
f 199/180/69 200/179/69 198/181/69 197/182/69
f 197/182/70 198/181/70 194/183/70 193/184/70
f 195/185/71 199/180/71 197/182/71 193/186/71
f 200/179/72 196/187/72 194/188/72 198/181/72
